HIERARCHY
ROOT Hips
{
 OFFSET 0.000000 0.000000 0.000000
 CHANNELS 6 Xposition Yposition Zposition Yrotation Xrotation Zrotation
 JOINT Chest
 {
  OFFSET 0.000000 10.678932 0.006280
  CHANNELS 3 Yrotation Xrotation Zrotation
  JOINT Chest2
  {
   OFFSET 0.000000 10.491159 -0.011408
   CHANNELS 3 Yrotation Xrotation Zrotation
   JOINT Chest3
   {
    OFFSET 0.000000 9.479342 0.000000
    CHANNELS 3 Yrotation Xrotation Zrotation
    JOINT Chest4
    {
     OFFSET 0.000000 9.479342 0.000000
     CHANNELS 3 Yrotation Xrotation Zrotation
     JOINT Neck
     {
      OFFSET 0.000000 13.535332 0.000000
      CHANNELS 3 Yrotation Xrotation Zrotation
      JOINT Head
      {
       OFFSET 0.000000 8.819083 -0.027129
       CHANNELS 3 Yrotation Xrotation Zrotation
       End Site
       {
        OFFSET 0.000000 16.966594 -0.014170
       }
      }
     }
     JOINT RightCollar
     {
      OFFSET -3.012546 7.545150 0.000000
      CHANNELS 3 Yrotation Xrotation Zrotation
      JOINT RightShoulder
      {
       OFFSET -13.683099 0.000000 0.000000
       CHANNELS 3 Yrotation Xrotation Zrotation
       JOINT RightElbow
       {
        OFFSET -26.359998 0.000000 0.000000
        CHANNELS 3 Yrotation Xrotation Zrotation
        JOINT RightWrist
        {
         OFFSET -21.746691 0.000000 0.008601
         CHANNELS 3 Yrotation Xrotation Zrotation
         End Site
         {
          OFFSET -16.348058 0.000000 0.000000
         }
        }
       }
      }
     }
     JOINT LeftCollar
     {
      OFFSET 3.012546 7.545150 0.000000
      CHANNELS 3 Yrotation Xrotation Zrotation
      JOINT LeftShoulder
      {
       OFFSET 13.683099 0.000000 0.000000
       CHANNELS 3 Yrotation Xrotation Zrotation
       JOINT LeftElbow
       {
        OFFSET 26.359998 0.000000 0.000000
        CHANNELS 3 Yrotation Xrotation Zrotation
        JOINT LeftWrist
        {
         OFFSET 21.746691 0.000000 0.008601
         CHANNELS 3 Yrotation Xrotation Zrotation
         End Site
         {
          OFFSET 16.348058 0.000000 0.000000
         }
        }
       }
      }
     }
    }
   }
  }
 }
 JOINT RightHip
 {
  OFFSET -8.622479 -0.030774 -0.003140
  CHANNELS 3 Yrotation Xrotation Zrotation
  JOINT RightKnee
  {
   OFFSET 0.000000 -37.209160 -0.002630
   CHANNELS 3 Yrotation Xrotation Zrotation
   JOINT RightAnkle
   {
    OFFSET 0.000000 -37.343279 -0.058479
    CHANNELS 3 Yrotation Xrotation Zrotation
    JOINT RightToe
    {
     OFFSET 0.000000 -8.903465 15.088070
     CHANNELS 3 Yrotation Xrotation Zrotation
     End Site
     {
      OFFSET 0.000000 -1.471739 6.884388
     }
    }
   }
  }
 }
 JOINT LeftHip
 {
  OFFSET 8.622479 -0.030774 -0.003140
  CHANNELS 3 Yrotation Xrotation Zrotation
  JOINT LeftKnee
  {
   OFFSET 0.000000 -37.209160 -0.002630
   CHANNELS 3 Yrotation Xrotation Zrotation
   JOINT LeftAnkle
   {
    OFFSET 0.000000 -37.343279 -0.058479
    CHANNELS 3 Yrotation Xrotation Zrotation
    JOINT LeftToe
    {
     OFFSET 0.000000 -8.903465 15.088070
     CHANNELS 3 Yrotation Xrotation Zrotation
     End Site
     {
      OFFSET 0.000000 -1.471739 6.884388
     }
    }
   }
  }
 }
}
MOTION
Frames: 12
Frame Time: 0.150000
-0.667786 83.315683 -16.073400 0.000000 -5.826342 0.000000 0.000000 11.116423 0.000000 0.000000 -5.290081 0.000000 0.000000 0.000000 0.000000 0.000000 0.000000 0.000000 0.000000 12.665069 0.000000 0.000000 0.575450 0.000000 0.000000 0.000000 0.000000 0.000000 0.000000 0.000000 2.337306 0.000000 0.000000 -2.337306 0.000000 0.000000 0.000000 0.000000 0.000000 0.000000 0.000000 0.000000 -2.337306 0.000000 0.000000 2.337306 0.000000 0.000000 0.000000 8.578828 0.000000 0.000000 1.905768 0.000000 0.000000 -4.658254 0.000000 0.000000 0.000000 0.000000 0.000000 8.578828 0.000000 0.000000 1.905768 0.000000 0.000000 -4.658254 0.000000 0.000000 0.000000 0.000000
-175.490321 82.279115 -66.936273 68.287387 -7.932395 -0.876368 -3.320653 4.606541 -0.156776 -0.127972 0.203608 0.005771 -0.208510 0.331768 0.009170 -2.826416 4.496911 0.021543 2.546913 15.333589 -0.394052 4.908263 -7.651024 -1.688169 5.923028 -3.442983 -0.213907 13.358477 28.971555 56.896110 95.257038 15.436222 51.371589 30.787227 9.081837 -9.264051 10.504424 -2.163592 6.418855 -31.967691 25.901050 -65.821948 -103.929171 20.277286 -51.589833 -25.959932 12.544489 31.666214 -3.374105 12.403929 -14.870364 -9.602223 1.799251 -0.259908 3.319919 -4.314229 13.066907 0.040976 -0.154555 0.030314 14.793803 15.151752 17.403981 6.246087 -5.662584 0.004450 -3.426164 -2.793332 -16.870653 -0.008416 0.037409 -0.000229
-175.537149 82.263694 -67.082143 68.380787 -7.540983 -0.745873 -2.976863 4.385203 -0.335385 -0.104844 0.184181 -0.002878 -0.171520 0.301301 -0.004884 -2.485092 4.350443 -0.158494 2.106498 16.099635 -0.334075 4.040620 -6.247045 -1.384450 5.501704 -3.481229 -0.081519 13.493840 28.938578 57.238523 95.116167 15.553489 51.509862 30.811975 9.089452 -9.304745 10.173208 -1.287387 7.818298 -31.357059 24.572078 -66.005255 -104.496341 20.061918 -51.416702 -26.095872 12.478580 30.530607 -3.668930 12.160253 -15.072410 -9.461456 1.620891 -0.272162 3.339785 -4.320854 13.073782 0.029547 -0.106789 0.032957 14.015810 15.013148 17.016189 6.814024 -5.639969 -0.064772 -3.337048 -2.832267 -16.927913 0.053300 0.069716 0.050841
-175.583346 82.256687 -67.225773 68.615218 -7.045996 -0.527645 -2.630785 4.238033 -0.514713 -0.087949 0.165414 -0.010867 -0.144413 0.271572 -0.017975 -2.232110 4.166850 -0.352297 2.130515 16.839279 -0.483746 4.117224 -4.867484 -1.644193 5.048797 -3.654829 0.041213 13.684338 28.852048 57.500859 95.074585 15.707576 51.703733 30.805772 9.185816 -9.463467 9.913402 -1.117595 8.663208 -31.152247 23.904892 -65.953927 -104.825094 19.945329 -51.443343 -26.265893 12.436342 30.112043 -4.150388 11.776010 -15.389317 -9.367335 1.514549 -0.279040 3.383185 -4.347504 13.126166 0.020961 -0.089837 0.021439 13.522081 14.693414 16.580842 7.104862 -5.737161 -0.135390 -3.313199 -2.719405 -16.919825 0.024817 0.048412 0.040367
-175.602203 82.256924 -67.353231 69.182547 -6.964675 -0.425047 -2.751659 4.283678 -0.398558 -0.096866 0.166647 -0.006624 -0.158921 0.273381 -0.011015 -2.417921 4.138418 -0.248642 2.574807 16.726396 -0.853282 5.074138 -5.042811 -2.489213 5.112051 -3.546510 -0.174467 13.897002 28.686897 57.405407 95.085343 15.681998 51.753965 30.867303 9.184176 -9.488989 9.742336 -1.190327 7.966773 -31.453445 24.391382 -66.079449 -103.888006 20.010043 -51.327770 -26.405874 12.613892 30.861078 -4.629986 11.938874 -15.643793 -9.426090 1.422736 -0.174144 3.337427 -4.337262 13.112474 0.027933 -0.127562 0.029782 13.373398 14.532010 16.482401 7.102760 -5.733462 -0.204990 -3.609494 -2.684201 -16.971339 0.020606 0.062498 0.032545
-175.650797 82.260433 -67.426305 69.549246 -6.913690 -0.441033 -2.823445 4.253374 -0.301696 -0.104656 0.160128 -0.002896 -0.171735 0.262751 -0.004905 -2.619568 3.995138 -0.160069 2.590002 16.795824 -0.554083 4.994539 -4.928031 -1.937154 5.296463 -3.498492 -0.260126 14.038247 28.633522 57.211193 95.075293 15.544452 51.954846 30.914862 9.183136 -9.528793 9.667947 -1.056057 7.882455 -32.206860 24.227689 -66.017305 -103.475641 19.878992 -51.406928 -26.506044 12.711209 31.509351 -4.702555 12.180291 -15.593350 -9.576596 1.260780 -0.186860 3.237560 -4.379783 13.114841 0.058007 -0.145686 0.028103 14.203674 14.383894 16.654755 6.330103 -6.108018 -0.150695 -3.763760 -2.488454 -17.024004 -0.055921 0.070579 -0.024746
-175.770647 82.257049 -67.564365 69.683486 -6.947602 -0.381223 -2.972521 4.152766 -0.224995 -0.111446 0.155642 0.000025 -0.182869 0.255389 -0.000118 -2.785794 3.883382 -0.090055 2.538102 16.571226 -0.875905 5.020252 -5.331271 -2.525511 5.571562 -3.470968 -0.295607 14.479038 28.695222 57.332428 94.880749 15.513528 52.149884 30.904541 9.106946 -9.946481 9.702513 -0.965620 7.677067 -32.624134 24.454535 -66.063287 -103.106975 19.872157 -51.348759 -26.695821 12.808414 32.058486 -4.726671 12.284393 -15.648336 -9.555587 1.211582 -0.228600 3.166853 -4.395971 13.141831 0.058402 -0.157418 0.042152 14.299699 14.394516 16.597497 6.159107 -6.138569 -0.128996 -3.777142 -2.483349 -17.031216 -0.044438 0.095789 -0.019601
-175.958673 82.264750 -67.697726 69.664719 -7.050183 -0.424287 -3.063897 4.186156 -0.196435 -0.117532 0.158187 0.001306 -0.192689 0.259345 0.001971 -2.891552 3.886608 -0.062031 2.586565 16.157844 -0.948472 5.153221 -6.092387 -2.697391 6.161225 -3.964852 -0.451702 15.211731 29.283864 57.963792 94.497816 15.858207 52.239669 30.780629 9.217679 -10.704488 9.582667 -1.453952 7.311578 -33.432463 25.064308 -66.262725 -102.426003 19.508202 -51.166927 -26.386271 12.830552 32.574449 -4.657331 12.354831 -15.604899 -9.538085 1.197783 -0.221332 3.180384 -4.346820 13.113524 0.059964 -0.163993 0.035827 14.330270 14.454761 16.654304 6.184843 -6.106269 -0.139768 -3.743920 -2.480834 -17.026482 -0.035776 0.115601 -0.018992
-176.184732 82.267726 -67.751258 69.560601 -7.241017 -0.598655 -3.011835 4.305006 -0.224322 -0.117468 0.164587 0.000050 -0.192441 0.269631 -0.000095 -2.851710 3.987861 -0.094005 2.622355 16.248092 -0.764034 5.149711 -5.932825 -2.363137 6.635047 -4.176100 -0.226799 14.393340 29.809352 57.859076 94.426625 15.917860 52.281564 30.892926 9.321132 -11.018380 9.693268 -1.561854 7.212544 -33.463548 25.060513 -66.146845 -102.241095 19.264991 -50.907501 -26.322942 12.796140 32.482808 -4.347316 12.484364 -15.333303 -9.662701 1.296908 -0.226000 3.198651 -4.361420 13.027884 0.056636 -0.161310 0.035819 14.334008 14.572717 16.899472 6.378203 -6.016344 -0.145121 -3.737157 -2.514142 -17.037161 -0.018633 0.131986 -0.016147
-176.374463 82.272094 -67.868261 69.719974 -7.210539 -0.629469 -3.099744 4.390436 -0.268720 -0.124996 0.170619 -0.000296 -0.204496 0.279134 -0.000678 -2.962586 4.035252 -0.106989 2.552620 16.184606 -0.814030 5.040609 -6.051218 -2.434034 7.387967 -4.479456 -0.121727 14.087068 30.198438 57.579037 94.308022 15.935363 52.453258 30.995288 9.277259 -11.344695 9.838003 -1.651486 7.039198 -33.391035 25.098422 -66.004699 -102.220645 19.097975 -50.812142 -26.241337 12.719268 32.370563 -4.310618 12.536977 -15.232330 -9.888261 1.166464 -0.285404 3.224480 -4.253398 13.077133 0.072931 -0.212476 0.036207 14.748332 14.439499 17.028518 6.412780 -6.173455 -0.187843 -4.121358 -2.425380 -17.221500 -0.040903 0.164850 0.013044
-176.546497 82.283662 -67.951347 70.014697 -7.071600 -0.685959 -3.172532 4.368009 -0.194454 -0.129379 0.169537 0.002199 -0.211610 0.277296 0.003397 -3.050705 3.993146 -0.050039 2.586269 16.198041 -0.884779 5.128063 -6.021138 -2.576951 7.641438 -4.384448 -0.279978 14.122183 30.093063 57.464565 94.389895 15.980665 52.535166 31.007133 9.238124 -11.389747 10.017336 -1.577988 6.882137 -33.491865 25.137847 -65.964976 -102.049239 19.049124 -50.673133 -26.280391 12.758782 32.518139 -4.473507 12.302024 -15.207448 -9.737145 1.426749 -0.202572 3.102302 -4.335663 13.002153 0.073142 -0.234982 0.046238 14.868054 14.207138 17.137388 6.183560 -6.252932 -0.236824 -4.162078 -2.338584 -17.282167 -0.048501 0.142548 -0.020584
-176.710567 82.291664 -68.103178 69.977852 -7.092832 -0.700606 -3.172837 4.308031 -0.157080 -0.127049 0.166744 0.002696 -0.207906 0.272872 0.004219 -3.022964 3.964021 -0.036109 2.482087 16.487036 -0.807436 4.895343 -5.493405 -2.382579 7.659058 -4.253177 -0.330714 14.162811 30.147999 57.433507 94.392508 15.908999 52.582165 30.939616 9.199387 -11.625798 10.091221 -1.526574 7.072207 -33.674043 24.992708 -65.895183 -102.079441 19.014506 -50.487140 -26.228609 12.708874 32.282838 -4.625503 12.039362 -15.286186 -9.453619 1.775619 -0.177337 3.118247 -4.438751 12.941150 0.057184 -0.175754 0.043608 14.821612 14.227793 17.129752 6.245389 -6.196148 -0.252721 -4.116757 -2.360738 -17.301756 -0.013837 0.133059 -0.008509
